<svg width="66" height="34" viewBox="0 0 66 34" fill="none" xmlns="http://www.w3.org/2000/svg">
<path d="M0.612 14L5.292 0.985999H7.659L12.33 14H10.134L8.973 10.733H4.005L2.817 14H0.612ZM4.509 8.789H8.433L6.48 3.119L4.509 8.789ZM20.7225 4.694L17.2935 14H15.5655L12.1275 4.694H14.1345L16.3665 11.21H16.4835L18.7065 4.694H20.7225ZM27.786 6.242H25.707L25.716 11.579C25.716 11.855 25.746 12.059 25.806 12.191C25.872 12.317 25.974 12.401 26.112 12.443C26.256 12.479 26.448 12.497 26.688 12.497H27.831V13.883C27.711 13.931 27.528 13.973 27.282 14.009C27.042 14.051 26.718 14.072 26.31 14.072C25.572 14.072 24.999 13.976 24.591 13.784C24.189 13.586 23.91 13.307 23.754 12.947C23.598 12.587 23.52 12.158 23.52 11.66V6.242H22.008V4.694H23.583L24.132 1.931H25.707V4.685H27.786V6.242ZM33.5268 14.18C32.6388 14.18 31.8648 13.991 31.2048 13.613C30.5448 13.229 30.0318 12.68 29.6658 11.966C29.3058 11.252 29.1258 10.394 29.1258 9.392C29.1258 8.42 29.2998 7.568 29.6478 6.836C30.0018 6.104 30.5088 5.534 31.1688 5.126C31.8288 4.718 32.6178 4.514 33.5358 4.514C34.4238 4.514 35.1948 4.709 35.8488 5.099C36.5028 5.489 37.0068 6.047 37.3608 6.773C37.7208 7.499 37.9008 8.372 37.9008 9.392C37.9008 10.334 37.7298 11.165 37.3878 11.885C37.0518 12.599 36.5568 13.16 35.9028 13.568C35.2548 13.976 34.4628 14.18 33.5268 14.18ZM33.5358 12.515C34.0398 12.515 34.4538 12.377 34.7778 12.101C35.1078 11.825 35.3508 11.447 35.5068 10.967C35.6688 10.487 35.7498 9.941 35.7498 9.329C35.7498 8.759 35.6778 8.234 35.5338 7.754C35.3958 7.274 35.1618 6.89 34.8318 6.602C34.5078 6.308 34.0758 6.161 33.5358 6.161C33.0258 6.161 32.6028 6.296 32.2668 6.566C31.9368 6.83 31.6878 7.202 31.5198 7.682C31.3578 8.156 31.2768 8.705 31.2768 9.329C31.2768 9.893 31.3488 10.418 31.4928 10.904C31.6428 11.384 31.8828 11.774 32.2128 12.074C32.5428 12.368 32.9838 12.515 33.5358 12.515ZM6.642 19.806C7.596 19.806 8.442 20.001 9.18 20.391C9.918 20.775 10.512 21.297 10.962 21.957C11.418 22.617 11.688 23.352 11.772 24.162H9.459C9.369 23.682 9.201 23.253 8.955 22.875C8.715 22.497 8.397 22.197 8.001 21.975C7.605 21.753 7.131 21.642 6.579 21.642C5.889 21.642 5.301 21.807 4.815 22.137C4.335 22.461 3.966 22.977 3.708 23.685C3.456 24.393 3.33 25.311 3.33 26.439C3.33 28.149 3.612 29.394 4.176 30.174C4.74 30.954 5.541 31.344 6.579 31.344C7.131 31.344 7.605 31.224 8.001 30.984C8.397 30.738 8.715 30.414 8.955 30.012C9.201 29.604 9.369 29.16 9.459 28.68H11.772C11.7 29.268 11.55 29.832 11.322 30.372C11.1 30.912 10.785 31.395 10.377 31.821C9.969 32.241 9.456 32.574 8.838 32.82C8.226 33.06 7.494 33.18 6.642 33.18C5.448 33.18 4.422 32.907 3.564 32.361C2.712 31.809 2.055 31.029 1.593 30.021C1.137 29.007 0.909 27.804 0.909 26.412C0.909 25.026 1.137 23.841 1.593 22.857C2.049 21.873 2.703 21.12 3.555 20.598C4.413 20.07 5.442 19.806 6.642 19.806ZM17.7768 33.18C16.8888 33.18 16.1148 32.991 15.4548 32.613C14.7948 32.229 14.2818 31.68 13.9158 30.966C13.5558 30.252 13.3758 29.394 13.3758 28.392C13.3758 27.42 13.5498 26.568 13.8978 25.836C14.2518 25.104 14.7588 24.534 15.4188 24.126C16.0788 23.718 16.8678 23.514 17.7858 23.514C18.6738 23.514 19.4448 23.709 20.0988 24.099C20.7528 24.489 21.2568 25.047 21.6108 25.773C21.9708 26.499 22.1508 27.372 22.1508 28.392C22.1508 29.334 21.9798 30.165 21.6378 30.885C21.3018 31.599 20.8068 32.16 20.1528 32.568C19.5048 32.976 18.7128 33.18 17.7768 33.18ZM17.7858 31.515C18.2898 31.515 18.7038 31.377 19.0278 31.101C19.3578 30.825 19.6008 30.447 19.7568 29.967C19.9188 29.487 19.9998 28.941 19.9998 28.329C19.9998 27.759 19.9278 27.234 19.7838 26.754C19.6458 26.274 19.4118 25.89 19.0818 25.602C18.7578 25.308 18.3258 25.161 17.7858 25.161C17.2758 25.161 16.8528 25.296 16.5168 25.566C16.1868 25.83 15.9378 26.202 15.7698 26.682C15.6078 27.156 15.5268 27.705 15.5268 28.329C15.5268 28.893 15.5988 29.418 15.7428 29.904C15.8928 30.384 16.1328 30.774 16.4628 31.074C16.7928 31.368 17.2338 31.515 17.7858 31.515ZM24.0936 33V23.694H26.2266V25.026C26.4966 24.618 26.8626 24.264 27.3246 23.964C27.7926 23.664 28.3866 23.514 29.1066 23.514C29.4366 23.514 29.7696 23.571 30.1056 23.685C30.4476 23.799 30.7626 23.967 31.0506 24.189C31.3446 24.411 31.5786 24.687 31.7526 25.017C32.0466 24.579 32.4366 24.219 32.9226 23.937C33.4146 23.655 33.9666 23.514 34.5786 23.514C34.9146 23.514 35.2596 23.568 35.6136 23.676C35.9736 23.784 36.3036 23.964 36.6036 24.216C36.9036 24.468 37.1466 24.813 37.3326 25.251C37.5186 25.683 37.6116 26.226 37.6116 26.88V33H35.4246V27.141C35.4246 26.679 35.3436 26.316 35.1816 26.052C35.0196 25.788 34.8096 25.602 34.5516 25.494C34.2996 25.38 34.0296 25.323 33.7416 25.323C33.4836 25.323 33.2136 25.374 32.9316 25.476C32.6556 25.578 32.4186 25.746 32.2206 25.98C32.0286 26.214 31.9326 26.529 31.9326 26.925V33H29.7456V26.79C29.7456 26.466 29.6616 26.196 29.4936 25.98C29.3256 25.764 29.1126 25.602 28.8546 25.494C28.6026 25.38 28.3446 25.323 28.0806 25.323C27.8106 25.323 27.5346 25.38 27.2526 25.494C26.9766 25.608 26.7456 25.782 26.5596 26.016C26.3736 26.25 26.2806 26.553 26.2806 26.925V33H24.0936ZM44.8806 33.18C44.3826 33.18 43.9566 33.114 43.6026 32.982C43.2486 32.85 42.9516 32.679 42.7116 32.469C42.4776 32.259 42.2886 32.034 42.1446 31.794C42.0066 31.548 41.9016 31.314 41.8296 31.092L41.5776 33H39.9666V19.626H42.1626V25.053C42.2586 24.873 42.3906 24.693 42.5586 24.513C42.7326 24.333 42.9426 24.168 43.1886 24.018C43.4346 23.868 43.7136 23.748 44.0256 23.658C44.3436 23.562 44.6946 23.514 45.0786 23.514C46.2366 23.514 47.1516 23.925 47.8236 24.747C48.4956 25.569 48.8316 26.754 48.8316 28.302C48.8316 29.28 48.6816 30.135 48.3816 30.867C48.0876 31.599 47.6466 32.169 47.0586 32.577C46.4766 32.979 45.7506 33.18 44.8806 33.18ZM44.4306 31.569C45.0846 31.569 45.6216 31.308 46.0416 30.786C46.4616 30.264 46.6716 29.418 46.6716 28.248C46.6716 27.228 46.4736 26.457 46.0776 25.935C45.6816 25.407 45.1236 25.143 44.4036 25.143C43.8876 25.143 43.4646 25.26 43.1346 25.494C42.8106 25.728 42.5676 26.076 42.4056 26.538C42.2496 27 42.1686 27.57 42.1626 28.248C42.1626 29.436 42.3426 30.288 42.7026 30.804C43.0686 31.314 43.6446 31.569 44.4306 31.569ZM53.3263 33.18C52.7323 33.18 52.1983 33.072 51.7243 32.856C51.2563 32.634 50.8873 32.319 50.6173 31.911C50.3533 31.497 50.2213 30.996 50.2213 30.408C50.2213 29.382 50.5903 28.608 51.3283 28.086C52.0723 27.564 53.2573 27.291 54.8833 27.267L56.2693 27.231V26.601C56.2693 26.109 56.1223 25.725 55.8283 25.449C55.5403 25.167 55.0903 25.029 54.4783 25.035C54.0283 25.041 53.6143 25.149 53.2363 25.359C52.8643 25.563 52.6183 25.908 52.4983 26.394H50.6353C50.6713 25.758 50.8543 25.227 51.1843 24.801C51.5203 24.369 51.9793 24.048 52.5613 23.838C53.1433 23.622 53.8153 23.514 54.5773 23.514C55.4653 23.514 56.1883 23.631 56.7463 23.865C57.3043 24.099 57.7153 24.438 57.9793 24.882C58.2433 25.32 58.3753 25.851 58.3753 26.475V33H56.5303L56.3593 31.326C56.0233 32.028 55.5973 32.514 55.0813 32.784C54.5713 33.048 53.9863 33.18 53.3263 33.18ZM54.0373 31.695C54.3073 31.695 54.5743 31.647 54.8383 31.551C55.1023 31.449 55.3423 31.314 55.5583 31.146C55.7743 30.972 55.9453 30.78 56.0713 30.57C56.2033 30.36 56.2693 30.141 56.2693 29.913V28.446L55.1263 28.464C54.5623 28.47 54.0703 28.53 53.6503 28.644C53.2303 28.758 52.9003 28.941 52.6603 29.193C52.4263 29.439 52.3093 29.769 52.3093 30.183C52.3093 30.657 52.4743 31.029 52.8043 31.299C53.1343 31.563 53.5453 31.695 54.0373 31.695ZM65.7547 25.242H63.6757L63.6847 30.579C63.6847 30.855 63.7147 31.059 63.7747 31.191C63.8407 31.317 63.9427 31.401 64.0807 31.443C64.2247 31.479 64.4167 31.497 64.6567 31.497H65.7997V32.883C65.6797 32.931 65.4967 32.973 65.2507 33.009C65.0107 33.051 64.6867 33.072 64.2787 33.072C63.5407 33.072 62.9677 32.976 62.5597 32.784C62.1577 32.586 61.8787 32.307 61.7227 31.947C61.5667 31.587 61.4887 31.158 61.4887 30.66V25.242H59.9767V23.694H61.5517L62.1007 20.931H63.6757V23.685H65.7547V25.242Z" fill="white"/>
</svg>
