<svg width="111" height="38" viewBox="0 0 111 38" fill="none" xmlns="http://www.w3.org/2000/svg">
<path d="M50.4141 3.52734L45.5508 18H42.1406L48.5156 0.9375H50.6953L50.4141 3.52734ZM54.4805 18L49.5938 3.52734L49.3008 0.9375H51.4922L57.9023 18H54.4805ZM54.2578 11.6602V14.2031H45.1055V11.6602H54.2578ZM63.0469 15.6562L66 5.32031H69.2344L64.8867 18H62.918L63.0469 15.6562ZM60.8906 5.32031L63.8789 15.6797L63.9844 18H62.0039L57.6445 5.32031H60.8906ZM76.8633 5.32031V7.54688H69.5977V5.32031H76.8633ZM71.543 2.20312H74.6484V14.3438C74.6484 14.7188 74.6992 15.0078 74.8008 15.2109C74.9023 15.4141 75.0547 15.5508 75.2578 15.6211C75.4609 15.6914 75.7031 15.7266 75.9844 15.7266C76.1875 15.7266 76.375 15.7148 76.5469 15.6914C76.7188 15.668 76.8633 15.6445 76.9805 15.6211L76.9922 17.9414C76.7344 18.0273 76.4414 18.0977 76.1133 18.1523C75.793 18.207 75.4297 18.2344 75.0234 18.2344C74.3281 18.2344 73.7188 18.1172 73.1953 17.8828C72.6719 17.6406 72.2656 17.2539 71.9766 16.7227C71.6875 16.1836 71.543 15.4727 71.543 14.5898V2.20312ZM78.0703 11.7891V11.543C78.0703 10.6133 78.2031 9.75781 78.4688 8.97656C78.7344 8.1875 79.1211 7.50391 79.6289 6.92578C80.1367 6.34766 80.7578 5.89844 81.4922 5.57812C82.2266 5.25 83.0625 5.08594 84 5.08594C84.9531 5.08594 85.7969 5.25 86.5312 5.57812C87.2734 5.89844 87.8984 6.34766 88.4062 6.92578C88.9141 7.50391 89.3008 8.1875 89.5664 8.97656C89.832 9.75781 89.9648 10.6133 89.9648 11.543V11.7891C89.9648 12.7109 89.832 13.5664 89.5664 14.3555C89.3008 15.1367 88.9141 15.8203 88.4062 16.4062C87.8984 16.9844 87.2773 17.4336 86.543 17.7539C85.8086 18.0742 84.9688 18.2344 84.0234 18.2344C83.0859 18.2344 82.2461 18.0742 81.5039 17.7539C80.7617 17.4336 80.1367 16.9844 79.6289 16.4062C79.1211 15.8203 78.7344 15.1367 78.4688 14.3555C78.2031 13.5664 78.0703 12.7109 78.0703 11.7891ZM81.1641 11.543V11.7891C81.1641 12.3438 81.2188 12.8633 81.3281 13.3477C81.4375 13.832 81.6055 14.2578 81.832 14.625C82.0586 14.9922 82.3516 15.2812 82.7109 15.4922C83.0781 15.6953 83.5156 15.7969 84.0234 15.7969C84.5234 15.7969 84.9531 15.6953 85.3125 15.4922C85.6719 15.2812 85.9648 14.9922 86.1914 14.625C86.4258 14.2578 86.5977 13.832 86.707 13.3477C86.8164 12.8633 86.8711 12.3438 86.8711 11.7891V11.543C86.8711 10.9961 86.8164 10.4844 86.707 10.0078C86.5977 9.52344 86.4258 9.09766 86.1914 8.73047C85.9648 8.35547 85.668 8.0625 85.3008 7.85156C84.9414 7.63281 84.5078 7.52344 84 7.52344C83.5 7.52344 83.0703 7.63281 82.7109 7.85156C82.3516 8.0625 82.0586 8.35547 81.832 8.73047C81.6055 9.09766 81.4375 9.52344 81.3281 10.0078C81.2188 10.4844 81.1641 10.9961 81.1641 11.543Z" fill="white"/>
<path d="M52.5586 32.5703C52.5586 32.2422 52.5078 31.9492 52.4062 31.6914C52.3125 31.4258 52.1367 31.1875 51.8789 30.9766C51.6289 30.7578 51.2734 30.5469 50.8125 30.3438C50.3594 30.1328 49.7734 29.9141 49.0547 29.6875C48.2578 29.4375 47.5156 29.1562 46.8281 28.8438C46.1406 28.5312 45.5352 28.168 45.0117 27.7539C44.4961 27.3398 44.0938 26.8633 43.8047 26.3242C43.5156 25.7773 43.3711 25.1445 43.3711 24.4258C43.3711 23.7227 43.5195 23.082 43.8164 22.5039C44.1211 21.9258 44.5508 21.4297 45.1055 21.0156C45.6602 20.5938 46.3125 20.2695 47.0625 20.043C47.8203 19.8164 48.6562 19.7031 49.5703 19.7031C50.8359 19.7031 51.9297 19.9336 52.8516 20.3945C53.7812 20.8555 54.5 21.4805 55.0078 22.2695C55.5156 23.0586 55.7695 23.9453 55.7695 24.9297H52.5586C52.5586 24.3984 52.4453 23.9297 52.2188 23.5234C52 23.1172 51.6641 22.7969 51.2109 22.5625C50.7656 22.3281 50.2031 22.2109 49.5234 22.2109C48.8672 22.2109 48.3203 22.3086 47.8828 22.5039C47.4531 22.6992 47.1289 22.9648 46.9102 23.3008C46.6992 23.6367 46.5938 24.0117 46.5938 24.4258C46.5938 24.7383 46.668 25.0195 46.8164 25.2695C46.9648 25.5117 47.1875 25.7422 47.4844 25.9609C47.7812 26.1719 48.1484 26.3711 48.5859 26.5586C49.0312 26.7383 49.5469 26.918 50.1328 27.0977C51.0703 27.3789 51.8906 27.6914 52.5938 28.0352C53.3047 28.3789 53.8945 28.7695 54.3633 29.207C54.8398 29.6445 55.1953 30.1367 55.4297 30.6836C55.6719 31.2305 55.793 31.8516 55.793 32.5469C55.793 33.2812 55.6484 33.9375 55.3594 34.5156C55.0703 35.0938 54.6562 35.5859 54.1172 35.9922C53.5781 36.3984 52.9297 36.707 52.1719 36.918C51.4219 37.1289 50.582 37.2344 49.6523 37.2344C48.8242 37.2344 48.0039 37.125 47.1914 36.9062C46.3867 36.6797 45.6562 36.3438 45 35.8984C44.3438 35.4453 43.8203 34.875 43.4297 34.1875C43.0391 33.4922 42.8438 32.6797 42.8438 31.75H46.0781C46.0781 32.2891 46.1641 32.75 46.3359 33.1328C46.5156 33.5078 46.7656 33.8164 47.0859 34.0586C47.4141 34.293 47.7969 34.4648 48.2344 34.5742C48.6719 34.6836 49.1445 34.7383 49.6523 34.7383C50.3086 34.7383 50.8477 34.6484 51.2695 34.4688C51.6992 34.2812 52.0195 34.0234 52.2305 33.6953C52.4492 33.3672 52.5586 32.9922 52.5586 32.5703ZM63.7383 37.2344C62.7773 37.2344 61.9141 37.0781 61.1484 36.7656C60.3828 36.4531 59.7305 36.0195 59.1914 35.4648C58.6602 34.9023 58.25 34.25 57.9609 33.5078C57.6797 32.7578 57.5391 31.9531 57.5391 31.0938V30.625C57.5391 29.6484 57.6797 28.7617 57.9609 27.9648C58.2422 27.1602 58.6406 26.4688 59.1562 25.8906C59.6719 25.3125 60.2891 24.8672 61.0078 24.5547C61.7266 24.2422 62.5195 24.0859 63.3867 24.0859C64.2852 24.0859 65.0781 24.2383 65.7656 24.543C66.4531 24.8398 67.0273 25.2617 67.4883 25.8086C67.9492 26.3555 68.2969 27.0117 68.5312 27.7773C68.7656 28.5352 68.8828 29.375 68.8828 30.2969V31.5977H58.9453V29.4648H65.8359V29.2305C65.8203 28.7383 65.7266 28.2891 65.5547 27.8828C65.3828 27.4688 65.1172 27.1406 64.7578 26.8984C64.3984 26.6484 63.9336 26.5234 63.3633 26.5234C62.9023 26.5234 62.5 26.625 62.1562 26.8281C61.8203 27.0234 61.5391 27.3047 61.3125 27.6719C61.0938 28.0312 60.9297 28.4609 60.8203 28.9609C60.7109 29.4609 60.6562 30.0156 60.6562 30.625V31.0938C60.6562 31.625 60.7266 32.1172 60.8672 32.5703C61.0156 33.0234 61.2305 33.418 61.5117 33.7539C61.8008 34.082 62.1445 34.3398 62.543 34.5273C62.9492 34.707 63.4102 34.7969 63.9258 34.7969C64.5742 34.7969 65.1602 34.6719 65.6836 34.4219C66.2148 34.1641 66.6758 33.7852 67.0664 33.2852L68.625 34.9023C68.3594 35.293 68 35.668 67.5469 36.0273C67.1016 36.3867 66.5625 36.6797 65.9297 36.9062C65.2969 37.125 64.5664 37.2344 63.7383 37.2344ZM74.0508 26.9102V37H70.957V24.3203H73.8867L74.0508 26.9102ZM77.9062 24.2383L77.8594 27.1211C77.6875 27.0898 77.4922 27.0664 77.2734 27.0508C77.0625 27.0352 76.8633 27.0273 76.6758 27.0273C76.1992 27.0273 75.7812 27.0938 75.4219 27.2266C75.0625 27.3516 74.7617 27.5352 74.5195 27.7773C74.2852 28.0195 74.1055 28.3164 73.9805 28.668C73.8555 29.0117 73.7852 29.4023 73.7695 29.8398L73.1016 29.7578C73.1016 28.9531 73.1836 28.207 73.3477 27.5195C73.5117 26.832 73.75 26.2305 74.0625 25.7148C74.375 25.1992 74.7656 24.8008 75.2344 24.5195C75.7109 24.2305 76.2578 24.0859 76.875 24.0859C77.0469 24.0859 77.2305 24.1016 77.4258 24.1328C77.6289 24.1562 77.7891 24.1914 77.9062 24.2383ZM84.0234 34.6562L86.9766 24.3203H90.2109L85.8633 37H83.8945L84.0234 34.6562ZM81.8672 24.3203L84.8555 34.6797L84.9609 37H82.9805L78.6211 24.3203H81.8672ZM95.1211 24.3203V37H92.0156V24.3203H95.1211ZM91.8047 21.0039C91.8047 20.543 91.9609 20.1602 92.2734 19.8555C92.5938 19.5508 93.0234 19.3984 93.5625 19.3984C94.1016 19.3984 94.5273 19.5508 94.8398 19.8555C95.1602 20.1602 95.3203 20.543 95.3203 21.0039C95.3203 21.457 95.1602 21.8359 94.8398 22.1406C94.5273 22.4453 94.1016 22.5977 93.5625 22.5977C93.0234 22.5977 92.5938 22.4453 92.2734 22.1406C91.9609 21.8359 91.8047 21.457 91.8047 21.0039ZM105.047 33.5312C105.047 33.2656 104.977 33.0273 104.836 32.8164C104.695 32.6055 104.43 32.4141 104.039 32.2422C103.656 32.0625 103.094 31.8945 102.352 31.7383C101.695 31.5977 101.09 31.4219 100.535 31.2109C99.9805 31 99.5039 30.7461 99.1055 30.4492C98.707 30.1445 98.3945 29.7891 98.168 29.3828C97.9492 28.9688 97.8398 28.4922 97.8398 27.9531C97.8398 27.4297 97.9531 26.9375 98.1797 26.4766C98.4062 26.0078 98.7344 25.5977 99.1641 25.2461C99.5938 24.8867 100.117 24.6055 100.734 24.4023C101.352 24.1914 102.047 24.0859 102.82 24.0859C103.898 24.0859 104.824 24.2617 105.598 24.6133C106.379 24.9648 106.977 25.4492 107.391 26.0664C107.805 26.6758 108.012 27.3633 108.012 28.1289H104.918C104.918 27.793 104.84 27.4883 104.684 27.2148C104.535 26.9414 104.305 26.7227 103.992 26.5586C103.68 26.3867 103.285 26.3008 102.809 26.3008C102.379 26.3008 102.016 26.3711 101.719 26.5117C101.43 26.6523 101.211 26.8359 101.062 27.0625C100.914 27.2891 100.84 27.5391 100.84 27.8125C100.84 28.0156 100.879 28.1992 100.957 28.3633C101.043 28.5195 101.18 28.6641 101.367 28.7969C101.555 28.9297 101.809 29.0508 102.129 29.1602C102.457 29.2695 102.859 29.375 103.336 29.4766C104.281 29.6641 105.105 29.9141 105.809 30.2266C106.52 30.5312 107.074 30.9375 107.473 31.4453C107.871 31.9531 108.07 32.6016 108.07 33.3906C108.07 33.9531 107.949 34.4688 107.707 34.9375C107.465 35.3984 107.113 35.8008 106.652 36.1445C106.191 36.4883 105.641 36.7578 105 36.9531C104.359 37.1406 103.637 37.2344 102.832 37.2344C101.668 37.2344 100.684 37.0273 99.8789 36.6133C99.0742 36.1914 98.4648 35.6602 98.0508 35.0195C97.6367 34.3711 97.4297 33.6992 97.4297 33.0039H100.395C100.418 33.4961 100.551 33.8906 100.793 34.1875C101.035 34.4844 101.34 34.6992 101.707 34.832C102.082 34.957 102.477 35.0195 102.891 35.0195C103.359 35.0195 103.754 34.957 104.074 34.832C104.395 34.6992 104.637 34.5234 104.801 34.3047C104.965 34.0781 105.047 33.8203 105.047 33.5312Z" fill="#FF0000"/>
<path d="M18.4535 0.543335C15.3792 2.75132 11.2296 2.7639 8.06421 0.574787C7.79081 0.37978 7.54171 0.222519 7.51741 0.222519C7.49311 0.222519 7.38375 0.329456 7.28046 0.455269C7.1711 0.587368 6.70936 1.09061 6.25369 1.57499C5.79802 2.05936 5.02642 2.88342 4.54645 3.39924C2.742 5.34302 2.01293 6.12305 1.48436 6.68291L0.937554 7.25535L1.36284 7.7523C1.92787 8.4191 2.2195 8.83428 2.59011 9.50736C3.67764 11.47 4.00572 13.9359 3.47715 16.1816C3.2159 17.2888 2.88174 18.0751 2.15267 19.2514C1.03476 21.0631 0.524414 22.8119 0.524414 24.85C0.524414 25.8817 0.58517 26.4164 0.809966 27.3536C1.53904 30.3605 3.62904 32.8956 6.39343 34.1034C7.67537 34.6695 8.59279 34.852 10.5248 34.94C12.0133 35.0092 12.9368 35.1476 14.1155 35.4873C15.5797 35.9025 17.1108 36.6196 18.3866 37.494L19.0003 37.9092L19.6139 37.494C20.8898 36.6196 22.4208 35.9025 23.885 35.4873C25.0637 35.1476 25.9872 35.0092 27.4757 34.94C29.4077 34.852 30.3251 34.6695 31.6071 34.1034C34.3715 32.8956 36.4615 30.3605 37.1905 27.3536C37.4153 26.4164 37.4761 25.8817 37.4761 24.85C37.4761 22.8119 36.9658 21.0631 35.8478 19.2514C35.1188 18.0751 34.7846 17.2888 34.5234 16.1816C33.9948 13.9359 34.3229 11.47 35.4104 9.50736C35.781 8.83428 36.0726 8.4191 36.6377 7.7523L37.063 7.25535L36.5162 6.68291C35.9876 6.12305 35.2585 5.34302 33.4541 3.39924C32.9741 2.88342 32.2025 2.05936 31.7468 1.57499C31.2912 1.09061 30.8294 0.587368 30.7201 0.455269C30.6168 0.329456 30.5074 0.222519 30.4831 0.222519C30.4588 0.222519 30.2097 0.37978 29.9363 0.574787C28.1865 1.78257 26.0358 2.3676 24.043 2.17888C22.3236 2.01532 20.9505 1.51837 19.5714 0.562206C19.2494 0.342037 18.982 0.159611 18.982 0.165901C18.976 0.165901 18.739 0.335747 18.4535 0.543335ZM19.462 1.99645C21.1814 3.07214 23.5144 3.6257 25.5801 3.44328C27.0626 3.30489 28.1683 2.98407 29.5049 2.29211L30.3251 1.87064L31.2729 2.88342C31.7954 3.44328 32.9316 4.66364 33.8064 5.59464L35.3861 7.29309L35.0033 7.82779C34.0798 9.11735 33.4723 10.6019 33.1807 12.2689C33.1017 12.7344 33.0713 13.2062 33.0713 14.0617C33.0713 15.0745 33.0956 15.3261 33.2353 16.0244C33.527 17.446 34.0069 18.6349 34.8028 19.9056C35.4772 20.9876 35.8782 21.9689 36.1152 23.1201C36.2671 23.875 36.2731 25.8879 36.1152 26.6239C35.4712 29.7189 33.3508 32.2162 30.5317 33.1913C29.6264 33.5058 28.8852 33.6253 27.4149 33.6882C25.568 33.77 24.4501 33.9587 22.9798 34.4494C21.7039 34.8708 20.7318 35.3238 19.6017 36.0157L19.0003 36.3869L18.3988 36.0157C17.2687 35.3238 16.2966 34.8708 15.0208 34.4494C13.5505 33.9587 12.4326 33.77 10.5856 33.6882C9.72892 33.6505 9.02415 33.5876 8.63531 33.5058C5.22084 32.8201 2.62657 30.1781 1.88534 26.6239C1.72738 25.8879 1.73345 23.875 1.88534 23.1201C2.12229 21.9689 2.52328 20.9876 3.19767 19.9056C3.71409 19.0879 4.0847 18.3267 4.35811 17.5341C5.48816 14.2441 4.97782 10.6019 2.99718 7.82779L2.61441 7.29309L4.19407 5.59464C5.06895 4.66364 6.20508 3.44328 6.72758 2.88342L7.67537 1.87064L8.49558 2.29211C9.8322 2.98407 10.938 3.30489 12.4204 3.44328C13.8117 3.56909 15.3671 3.35521 16.7219 2.86455C17.3355 2.63809 18.3745 2.12855 18.6965 1.8958C18.8119 1.80774 18.9395 1.73854 18.976 1.73225C19.0185 1.73225 19.2372 1.85177 19.462 1.99645Z" fill="white"/>
<path d="M7.63912 5.31162C7.26243 5.43744 6.9465 5.5947 6.73993 5.76454C6.56374 5.90294 6.47261 5.84632 8.03403 6.50683C9.8324 7.27427 9.91746 7.40008 9.42534 8.67707C9.09118 9.52629 8.89069 9.80936 8.55046 9.9163C8.27098 10.0044 8.25883 9.99808 6.6488 9.30612C5.97441 9.01676 5.41546 8.79659 5.39723 8.81546C5.33647 8.87836 5.51874 9.57032 5.67671 9.90372C5.89543 10.3441 6.43008 10.9165 6.82499 11.1241C7.32926 11.3883 7.73633 11.4764 8.89069 11.577C9.49825 11.6273 10.0572 11.6965 10.1423 11.728C10.2273 11.7594 10.6465 12.0991 11.084 12.4766L11.8738 13.1748L12.05 12.9295C12.1472 12.7974 12.372 12.5332 12.5482 12.3319C12.7244 12.1369 12.8641 11.9544 12.8641 11.9293C12.8641 11.9041 12.536 11.6022 12.1411 11.2562C11.7401 10.9165 11.4121 10.602 11.4121 10.5705C11.4121 10.5328 11.4789 10.4258 11.5579 10.3315L11.7098 10.1553L12.4996 10.8536L13.2955 11.5456L13.4717 11.4072C13.6965 11.2373 13.7269 11.2814 12.7062 10.407C11.8252 9.64581 11.8434 9.67726 11.5579 8.589C11.0171 6.58231 10.7437 6.09794 9.82633 5.55066C9.20662 5.18581 8.30743 5.08517 7.63912 5.31162ZM8.56868 6.1294C9.71697 6.43763 10.1423 6.67667 10.3792 7.15475C10.6162 7.63284 10.5068 8.07317 9.76557 9.68984C9.48002 10.3063 9.29775 10.4447 8.78133 10.4321C8.59299 10.4321 8.38642 10.3944 8.32566 10.3566C8.2406 10.3063 8.28313 10.2937 8.55653 10.2874C9.12156 10.2874 9.21877 10.1742 9.71089 8.99788C10.1483 7.93478 10.2091 7.61396 10.045 7.28056C9.87493 6.94088 9.59546 6.75845 8.69627 6.37473C7.47508 5.86519 7.46293 5.83374 8.56868 6.1294Z" fill="white"/>
<path d="M28.7758 5.34305C28.2473 5.53806 27.6944 5.93436 27.421 6.31808C27.1415 6.7081 26.9532 7.17989 26.7162 8.09831C26.6129 8.48832 26.4611 9.01044 26.376 9.25577C26.2241 9.7024 26.2241 9.7024 25.3492 10.4698C24.8632 10.8976 24.4683 11.2499 24.4683 11.2625C24.4683 11.275 24.5472 11.3442 24.6505 11.4197L24.8328 11.5518L25.6287 10.8536L26.4246 10.1553L26.6008 10.3629C26.7588 10.5579 26.7648 10.5768 26.6555 10.6649C25.7806 11.4197 25.2581 11.8852 25.2581 11.9293C25.2581 11.9544 25.495 12.2312 25.7927 12.5457L26.3213 13.1182L27.0808 12.4514C27.5 12.0865 27.907 11.7594 27.986 11.728C28.065 11.6965 28.624 11.6273 29.2315 11.577C30.6471 11.4575 31.1332 11.3128 31.7225 10.8347C32.2329 10.4132 32.7736 9.38787 32.7189 8.94124L32.7007 8.78398L31.4613 9.31867C29.8998 9.98547 29.8269 10.0106 29.5596 9.91628C29.2437 9.80934 29.0614 9.56401 28.7819 8.87205C28.4478 8.04798 28.4113 7.90959 28.4538 7.65168C28.5328 7.22392 28.7333 7.09182 30.1732 6.48164C30.9084 6.16711 31.5159 5.89662 31.5159 5.87146C31.5159 5.84629 31.3701 5.73935 31.2 5.63242C30.4284 5.17321 29.5292 5.06627 28.7758 5.34305ZM30.3616 5.9721C30.3616 5.98469 29.9363 6.1734 29.4199 6.38728C28.387 6.81504 28.1015 7.0415 28.0164 7.48813C27.9617 7.81523 28.0043 7.98508 28.4538 9.07334C28.9277 10.2056 29.0006 10.2874 29.5961 10.2874C30.0213 10.2874 30.0153 10.3252 29.5718 10.4132C29.1708 10.495 28.8609 10.4132 28.6483 10.1805C28.4052 9.91628 27.6276 8.04169 27.6276 7.71459C27.6276 7.23021 27.8827 6.79617 28.2959 6.576C28.7576 6.33696 30.3616 5.86517 30.3616 5.9721Z" fill="white"/>
<path d="M17.6336 10.8975C16.4671 10.9541 15.0393 11.1365 14.5168 11.2875C14.4074 11.3252 14.1766 11.4699 14.0004 11.6209C13.5933 11.9606 12.3782 13.1872 12.3782 13.2564C12.3782 13.2816 12.603 13.1495 12.8825 12.9671C13.727 12.3946 14.693 11.8662 15.015 11.797C16.2362 11.5391 20.7807 11.5391 22.5244 11.8033C22.9922 11.8725 23.5694 12.1367 23.776 12.3695C23.8732 12.4827 23.8671 12.4827 23.533 12.3632C23.0105 12.1807 22.3725 12.1178 20.5985 12.0675L19.0067 12.0298L18.6421 12.8224C18.4416 13.2627 18.2654 13.6716 18.2472 13.7345C18.2107 13.8477 18.2897 13.854 19.9848 13.8981C21.7164 13.9358 23.7942 14.0302 24.821 14.1119C25.3131 14.156 25.3313 14.1623 25.4528 14.3699L25.5804 14.5774L25.2827 14.5397C23.7213 14.3447 16.4063 14.2692 14.5046 14.4265C13.3381 14.5208 11.7889 14.6844 11.5884 14.7221C11.4486 14.7536 11.4243 14.7221 11.3271 14.439C11.2664 14.2692 11.157 14.049 11.0719 13.9547C10.9383 13.7848 10.9018 13.7785 10.4219 13.7848C9.40723 13.7974 8.61133 14.2063 8.61133 14.7158C8.61133 14.8857 9.63203 15.1058 10.5677 15.1499L10.914 15.1625L10.5069 15.477C9.99049 15.8796 9.66848 16.3199 9.58342 16.7351C9.48014 17.2824 9.40115 18.5027 9.35862 20.2767L9.32217 21.994L9.44976 22.0317C9.55912 22.0569 9.58342 22.1135 9.58342 22.3337C9.58342 22.8181 9.54089 22.8055 11.5823 22.8055C12.9068 22.8055 13.405 22.7866 13.4596 22.73C13.5022 22.6859 13.5326 22.5161 13.5326 22.3526V22.0506H19.0613H24.5901V22.3274C24.5901 22.8181 24.5415 22.8055 26.5951 22.8055C28.6486 22.8055 28.5392 22.8306 28.5392 22.3085C28.5392 22.0946 28.5575 22.0506 28.6608 22.0506C28.7276 22.0506 28.7823 22.0129 28.7883 21.9688C28.8126 21.6795 28.764 19.5658 28.7154 18.6537C28.6364 17.144 28.5635 16.603 28.3874 16.2885C28.2233 16.0054 27.8345 15.6091 27.4396 15.3449L27.1783 15.1625L27.8162 15.1184C28.3752 15.0807 29.3412 14.9171 29.4627 14.8416C29.5539 14.7787 29.5113 14.5145 29.3837 14.351C29.1286 14.0113 28.4542 13.7911 27.6826 13.7848C27.1419 13.7785 27.0629 13.8289 26.8685 14.2755L26.7409 14.5774L26.352 14.0239C25.9024 13.3822 24.8331 12.2185 24.2195 11.6964C23.9886 11.5014 23.6848 11.3064 23.533 11.2623C22.5791 10.9667 19.7661 10.7905 17.6336 10.8975ZM13.4171 16.2067C13.6358 16.3199 14.1158 17.3201 14.0064 17.4271C13.9882 17.4459 13.733 17.4208 13.4353 17.3641C12.6698 17.2258 11.157 17.1251 10.5737 17.1691C10.3003 17.1943 10.0634 17.188 10.0512 17.1629C10.033 17.1314 10.0573 17.0182 10.1059 16.9112C10.2821 16.5464 11.0355 16.2444 12.0319 16.1438C12.5665 16.0872 13.2591 16.1186 13.4171 16.2067ZM26.6862 16.2381C27.4821 16.3954 28.0532 16.7351 28.0532 17.0433C28.0532 17.1691 28.0228 17.1754 26.911 17.188C25.9146 17.1943 25.0215 17.2824 24.3046 17.4333C24.1466 17.4648 24.1041 17.4522 24.1041 17.3767C24.1041 17.1817 24.3471 16.6093 24.5233 16.3891C24.6691 16.2067 24.7481 16.1689 25.0215 16.1312C25.4468 16.0809 26.0786 16.1249 26.6862 16.2381ZM22.7674 17.8926C23.94 17.9995 25.1005 18.1442 25.866 18.2826C26.668 18.4273 27.8892 18.7166 27.8527 18.7544C27.8405 18.7669 27.397 18.7229 26.8624 18.6537C25.3131 18.4524 23.8064 18.3455 21.3579 18.2637C18.0163 18.1505 13.9882 18.3014 11.4972 18.6223C11.0962 18.6789 10.6466 18.7355 10.4948 18.7481L10.2214 18.7795L10.4948 18.6852C11.5276 18.3266 13.7573 17.9932 16.1147 17.8359C17.2083 17.7667 21.7771 17.8045 22.7674 17.8926ZM21.3457 18.9682C21.7771 19.006 22.2935 19.0752 22.494 19.1318C22.9132 19.2387 23.4844 19.5595 23.8307 19.8804L24.0737 20.1068L23.6362 19.8804C22.6338 19.3771 21.7832 19.2576 19.0613 19.2576C16.3334 19.2576 15.4707 19.3771 14.4986 19.8867C13.9761 20.1572 14.0064 20.0754 14.5776 19.6602C15.4524 19.0249 15.9506 18.9368 18.9155 18.9179C19.8208 18.9116 20.9144 18.9368 21.3457 18.9682Z" fill="white"/>
<path d="M17.2444 12.9232C17.0074 13.4013 16.813 13.8164 16.813 13.8353C16.813 13.8542 17.056 13.873 17.3537 13.873H17.8884L18.0767 13.4453C18.18 13.2125 18.3562 12.8037 18.4777 12.5332L18.6903 12.0488H18.1861H17.6818L17.2444 12.9232Z" fill="white"/>
<path d="M15.4095 12.168C15.288 12.1931 15.045 12.3063 14.8749 12.4196C14.5468 12.6397 13.6962 13.5393 13.52 13.8601L13.4106 14.0488L14.0668 14.0174C15.0875 13.9671 14.9964 14.0362 15.5189 13.0046L15.9745 12.1113L15.7983 12.1176C15.7072 12.1239 15.531 12.1428 15.4095 12.168Z" fill="white"/>
<path d="M13.9455 22.8055C13.7815 23.2081 13.5567 23.3088 12.7972 23.3088H12.1593L11.6125 23.7806L11.0718 24.2586L10.9077 24.051L10.7437 23.8435L11.0293 23.5793L11.3148 23.3151L10.9563 23.3088C10.6708 23.3088 10.5736 23.3402 10.4278 23.4597C10.2394 23.6233 9.75338 23.7114 8.61117 23.7868C7.86388 23.8309 7.20164 23.9944 6.77635 24.2335C6.45434 24.4159 5.87716 25.0135 5.71919 25.3343C5.56731 25.6426 5.39111 26.2024 5.39111 26.3911V26.5673L6.7642 25.9759C7.52364 25.6488 8.22234 25.3846 8.31954 25.3846C8.58079 25.3846 8.88457 25.5356 9.01824 25.7369C9.08507 25.8376 9.26734 26.259 9.4253 26.6679C9.75338 27.5046 9.75946 27.6996 9.49821 28.0518C9.3767 28.2217 9.11545 28.3538 7.97324 28.8444L6.59408 29.4357L6.73989 29.5616C6.99507 29.7817 7.633 30.0522 8.05829 30.1214C9.21873 30.3038 10.4642 29.637 10.9746 28.5551C11.0779 28.3349 11.3027 27.6555 11.4667 27.0516C11.6368 26.454 11.8009 25.8942 11.8373 25.8124C11.8738 25.7306 12.6514 25.0198 13.5688 24.2209C14.4863 23.4283 15.2822 22.73 15.3368 22.6671C15.428 22.5602 15.4037 22.5539 14.7414 22.5539H14.0488L13.9455 22.8055ZM9.24911 24.9695C9.51036 25.0827 9.60757 25.2462 10.0997 26.4037C10.5432 27.4479 10.5857 27.731 10.367 28.1965C10.1483 28.6683 9.6987 28.9073 8.37422 29.2533C8.02792 29.3414 7.73629 29.4043 7.72414 29.3917C7.71199 29.3791 8.10082 29.203 8.59295 29.0017C9.85667 28.4733 10.0632 28.2972 10.1179 27.7247C10.1422 27.4479 10.0997 27.3033 9.70478 26.3471C9.21873 25.1582 9.17013 25.0953 8.59902 25.0261C8.3317 24.9883 8.30132 24.9758 8.42891 24.938C8.68408 24.8625 9.03039 24.8751 9.24911 24.9695Z" fill="white"/>
<path d="M22.7065 22.5852C22.7065 22.5978 23.4903 23.2961 24.4563 24.1327C26.443 25.8626 26.3033 25.6676 26.686 27.1522C26.9838 28.2908 27.2815 28.9261 27.7189 29.335C28.6242 30.1968 29.7907 30.3792 30.9086 29.8445C31.6741 29.4797 31.6923 29.5048 30.2889 28.9072C28.77 28.2656 28.6788 28.209 28.527 27.8504C28.3751 27.5044 28.3933 27.4289 28.7821 26.4665C29.1345 25.6173 29.2742 25.4537 29.7117 25.4034C29.9304 25.3782 30.1734 25.4663 31.3582 25.9695L32.7495 26.5734L32.713 26.2526C32.6219 25.4852 31.9597 24.5479 31.2488 24.1893C30.7445 23.9377 30.2524 23.8308 29.177 23.7553C28.1746 23.6798 27.8465 23.6106 27.6521 23.4282C27.5609 23.3401 27.4394 23.3086 27.166 23.3086H26.8076L27.0931 23.5791L27.3847 23.8433L27.2146 24.0509L27.0506 24.2522L26.5099 23.7804L25.9752 23.3086H25.3251C24.5596 23.3086 24.3348 23.208 24.1829 22.8054L24.0857 22.5538H23.3931C23.0164 22.5538 22.7065 22.5664 22.7065 22.5852ZM29.6935 24.9442C29.8454 24.9945 29.8393 24.9945 29.6631 25.0008C29.3593 25.0134 29.0555 25.1266 28.9219 25.2713C28.7335 25.4915 27.9923 27.3535 27.9923 27.6177C27.9923 27.9322 28.1989 28.3159 28.4662 28.492C28.5877 28.5801 29.0798 28.8066 29.5598 29.0079C30.0337 29.2029 30.4104 29.379 30.3982 29.3916C30.3679 29.423 29.4565 29.184 28.8976 28.9953C28.2536 28.7814 27.9194 28.5424 27.7554 28.2027C27.5427 27.7498 27.5852 27.4793 27.9984 26.4854C28.4662 25.3531 28.6242 25.0826 28.8611 24.9756C29.0738 24.875 29.4565 24.8624 29.6935 24.9442Z" fill="white"/>
</svg>
