<svg width="147" height="14" viewBox="0 0 147 14" fill="none" xmlns="http://www.w3.org/2000/svg">
<path d="M4.99023 11.1641C7.1709 11.1641 8.63379 10.0771 9.08496 8.12891H7.84082C7.48535 9.33203 6.44629 10.0293 4.99707 10.0293C3.04883 10.0293 1.81152 8.48438 1.81152 6.06445C1.81152 3.66504 3.0625 2.10645 4.99023 2.10645C6.39844 2.10645 7.52637 2.9541 7.84082 4.24609H9.08496C8.77051 2.27734 7.13672 0.97168 4.99023 0.97168C2.29004 0.97168 0.546875 2.96777 0.546875 6.06445C0.546875 9.18848 2.26953 11.1641 4.99023 11.1641ZM10.3564 11H11.5459V6.57031C11.5459 5.56543 12.1475 4.90234 13.0703 4.90234C13.3574 4.90234 13.6104 4.93652 13.7061 4.9707V3.81543C13.6104 3.80176 13.4326 3.76758 13.2275 3.76758C12.3936 3.76758 11.7373 4.2666 11.5049 5.05273H11.4775V3.89062H10.3564V11ZM17.1855 4.7998C18.3066 4.7998 19.0518 5.64746 19.0791 6.83691H15.2168C15.292 5.6543 16.0713 4.7998 17.1855 4.7998ZM19.0518 8.96289C18.8535 9.63281 18.1904 10.0908 17.2881 10.0908C16.0098 10.0908 15.21 9.19531 15.21 7.83496V7.7666H20.3096V7.31543C20.3096 5.16211 19.127 3.76758 17.2061 3.76758C15.2441 3.76758 13.9863 5.26465 13.9863 7.47266C13.9863 9.70801 15.2236 11.123 17.2607 11.123C18.8125 11.123 20.0156 10.207 20.2207 8.96289H19.0518ZM23.8574 10.1113C23.0029 10.1113 22.4355 9.66699 22.4355 8.99023C22.4355 8.32031 22.9824 7.89648 23.9395 7.83496L25.8398 7.71875V8.2998C25.8398 9.3252 24.9785 10.1113 23.8574 10.1113ZM23.5908 11.123C24.5479 11.123 25.4502 10.5898 25.874 9.77637H25.9014V11H27.0293V6.08496C27.0293 4.66992 25.9766 3.76758 24.3086 3.76758C22.627 3.76758 21.5742 4.71094 21.4922 5.94141H22.6406C22.791 5.24414 23.3652 4.81348 24.2812 4.81348C25.2656 4.81348 25.8398 5.33301 25.8398 6.20117V6.7959L23.8027 6.91211C22.1621 7.00781 21.2256 7.77344 21.2256 8.99023C21.2256 10.2686 22.1758 11.123 23.5908 11.123ZM28.9229 2.1748V3.89062H27.8633V4.86816H28.9229V9.1543C28.9229 10.5215 29.4287 11.0547 30.7344 11.0547C31.0146 11.0547 31.3428 11.0342 31.4863 11V10.002C31.4043 10.0156 31.1309 10.0361 30.9941 10.0361C30.3857 10.0361 30.1123 9.74219 30.1123 9.09277V4.86816H31.4932V3.89062H30.1123V2.1748H28.9229ZM35.4102 4.7998C36.5312 4.7998 37.2764 5.64746 37.3037 6.83691H33.4414C33.5166 5.6543 34.2959 4.7998 35.4102 4.7998ZM37.2764 8.96289C37.0781 9.63281 36.415 10.0908 35.5127 10.0908C34.2344 10.0908 33.4346 9.19531 33.4346 7.83496V7.7666H38.5342V7.31543C38.5342 5.16211 37.3516 3.76758 35.4307 3.76758C33.4688 3.76758 32.2109 5.26465 32.2109 7.47266C32.2109 9.70801 33.4482 11.123 35.4854 11.123C37.0371 11.123 38.2402 10.207 38.4453 8.96289H37.2764ZM42.4307 11.123C43.4561 11.123 44.2695 10.6172 44.7275 9.79688H44.748V11H45.8828V1.13574H44.6934V5.0459H44.666C44.2422 4.2666 43.4219 3.76758 42.4033 3.76758C40.6123 3.76758 39.3887 5.2168 39.3887 7.44531C39.3887 9.67383 40.6191 11.123 42.4307 11.123ZM42.6562 4.81348C43.8799 4.81348 44.7002 5.85938 44.7002 7.44531C44.7002 9.03809 43.8799 10.0771 42.6562 10.0771C41.3984 10.0771 40.6055 9.05859 40.6055 7.44531C40.6055 5.83887 41.3984 4.81348 42.6562 4.81348ZM53.8945 11.123C55.7129 11.123 56.916 9.68066 56.916 7.44531C56.916 5.2168 55.7061 3.76758 53.915 3.76758C52.9102 3.76758 52.083 4.2666 51.6387 5.08008H51.6113V1.13574H50.4219V11H51.5566V9.79688H51.584C52.042 10.6172 52.8555 11.123 53.8945 11.123ZM53.6621 4.81348C54.9199 4.81348 55.6992 5.83203 55.6992 7.44531C55.6992 9.07227 54.9199 10.0771 53.6621 10.0771C52.459 10.0771 51.6045 9.03125 51.6045 7.44531C51.6045 5.86621 52.459 4.81348 53.6621 4.81348ZM58.5088 13.6592C59.7939 13.6592 60.3818 13.1602 60.9902 11.499L63.7861 3.89062H62.5352L60.5664 9.81055H60.5459L58.5771 3.89062H57.3057L59.9307 11.0068L59.7666 11.5059C59.4932 12.333 59.124 12.6543 58.4609 12.6543C58.3105 12.6543 58.126 12.6475 57.9961 12.6201V13.6182C58.126 13.6455 58.3652 13.6592 58.5088 13.6592Z" fill="white"/>
<path d="M67.2793 8.19043C67.3408 10.043 68.8516 11.1709 71.2236 11.1709C73.6709 11.1709 75.2227 9.96094 75.2227 8.04688C75.2227 6.54297 74.3613 5.69531 72.3857 5.27148L71.1895 5.01855C70.0547 4.75879 69.5762 4.41699 69.5762 3.80859C69.5762 3.07715 70.2598 2.5918 71.2783 2.5918C72.3105 2.5918 73.042 3.09766 73.1104 3.93164H75.0449C75.0107 2.14746 73.5684 0.964844 71.2715 0.964844C69.0703 0.964844 67.498 2.16797 67.498 3.98633C67.498 5.42871 68.3936 6.35156 70.2119 6.74121L71.4971 7.02148C72.6865 7.28809 73.1582 7.64355 73.1582 8.28613C73.1582 9.01074 72.4062 9.53711 71.3057 9.53711C70.2119 9.53711 69.3643 9.00391 69.2686 8.19043H67.2793ZM79.1533 9.67383C78.4766 9.67383 78.0254 9.33203 78.0254 8.78516C78.0254 8.26562 78.4492 7.93066 79.1943 7.87598L80.7393 7.78027V8.31348C80.7393 9.10645 80.0215 9.67383 79.1533 9.67383ZM78.4971 11.1162C79.4131 11.1162 80.3223 10.6582 80.7324 9.87891H80.7734V11H82.7012V5.96191C82.7012 4.48535 81.4775 3.51465 79.5977 3.51465C77.6562 3.51465 76.4463 4.49219 76.3711 5.91406H78.1963C78.292 5.37402 78.7637 5.00488 79.5088 5.00488C80.2607 5.00488 80.7393 5.40137 80.7393 6.08496V6.57031L78.8936 6.67969C77.0684 6.78906 76.043 7.56152 76.043 8.89453C76.043 10.2139 77.1025 11.1162 78.4971 11.1162ZM87.377 9.44141C86.3857 9.44141 85.7705 8.66211 85.7705 7.32227C85.7705 5.98926 86.3926 5.15527 87.377 5.15527C88.375 5.15527 89.0107 6.00293 89.0107 7.32227C89.0107 8.64844 88.375 9.44141 87.377 9.44141ZM87.3428 13.7617C89.5371 13.7617 91 12.6475 91 10.8975V3.67188H89.0312V4.9502H88.9971C88.6143 4.10938 87.7871 3.55566 86.7344 3.55566C84.875 3.55566 83.7266 4.98438 83.7266 7.30859C83.7266 9.59863 84.9092 10.9795 86.7002 10.9795C87.7598 10.9795 88.6211 10.4463 88.9629 9.66699H89.0039V10.9521C89.0039 11.7998 88.4297 12.374 87.3975 12.374C86.6387 12.374 86.0645 12.0254 85.9072 11.5195H83.9521C84.1094 12.8252 85.415 13.7617 87.3428 13.7617ZM95.5938 4.99121C96.4824 4.99121 97.0908 5.63379 97.1318 6.57031H94.0215C94.0898 5.6543 94.7188 4.99121 95.5938 4.99121ZM97.1592 8.75781C96.9746 9.31836 96.4141 9.68066 95.6826 9.68066C94.6641 9.68066 94.001 8.96289 94.001 7.91699V7.79395H99.0527V7.18555C99.0527 4.95703 97.7061 3.51465 95.5732 3.51465C93.4062 3.51465 92.0391 5.03223 92.0391 7.37012C92.0391 9.71484 93.3926 11.1572 95.6484 11.1572C97.46 11.1572 98.7725 10.1934 98.9912 8.75781H97.1592ZM99.9619 5.8252C99.9619 6.90527 100.673 7.62988 102.061 7.94434L103.414 8.24512C104.07 8.40234 104.316 8.60742 104.316 8.97656C104.316 9.45508 103.858 9.75586 103.1 9.75586C102.307 9.75586 101.821 9.40039 101.726 8.78516H99.7773C99.8867 10.2139 101.09 11.1572 103.045 11.1572C104.979 11.1572 106.306 10.207 106.306 8.76465C106.306 7.6709 105.711 7.08984 104.241 6.76172L102.84 6.46094C102.197 6.31055 101.883 6.06445 101.883 5.70215C101.883 5.23047 102.334 4.91602 103.024 4.91602C103.763 4.91602 104.234 5.27832 104.275 5.86621H106.114C106.087 4.44434 104.891 3.51465 103.052 3.51465C101.172 3.51465 99.9619 4.43066 99.9619 5.8252ZM113.463 9.44141C112.472 9.44141 111.856 8.66211 111.856 7.32227C111.856 5.98926 112.479 5.15527 113.463 5.15527C114.461 5.15527 115.097 6.00293 115.097 7.32227C115.097 8.64844 114.461 9.44141 113.463 9.44141ZM113.429 13.7617C115.623 13.7617 117.086 12.6475 117.086 10.8975V3.67188H115.117V4.9502H115.083C114.7 4.10938 113.873 3.55566 112.82 3.55566C110.961 3.55566 109.812 4.98438 109.812 7.30859C109.812 9.59863 110.995 10.9795 112.786 10.9795C113.846 10.9795 114.707 10.4463 115.049 9.66699H115.09V10.9521C115.09 11.7998 114.516 12.374 113.483 12.374C112.725 12.374 112.15 12.0254 111.993 11.5195H110.038C110.195 12.8252 111.501 13.7617 113.429 13.7617ZM118.392 11H120.388V6.90527C120.388 5.87305 120.962 5.27148 121.946 5.27148C122.233 5.27148 122.507 5.31934 122.671 5.3877V3.63086C122.534 3.58984 122.336 3.55566 122.104 3.55566C121.242 3.55566 120.62 4.06152 120.36 4.99121H120.319V3.67188H118.392V11ZM126.608 11.1572C128.823 11.1572 130.238 9.74219 130.238 7.3291C130.238 4.9502 128.803 3.51465 126.608 3.51465C124.414 3.51465 122.979 4.95703 122.979 7.3291C122.979 9.73535 124.394 11.1572 126.608 11.1572ZM126.608 9.63281C125.624 9.63281 125.002 8.80566 125.002 7.33594C125.002 5.87988 125.638 5.03906 126.608 5.03906C127.579 5.03906 128.208 5.87988 128.208 7.33594C128.208 8.80566 127.586 9.63281 126.608 9.63281ZM138.038 3.67188H136.042V7.86914C136.042 8.83984 135.488 9.47559 134.6 9.47559C133.718 9.47559 133.232 8.95605 133.232 7.97852V3.67188H131.236V8.39551C131.236 10.1045 132.289 11.1367 133.875 11.1367C134.982 11.1367 135.707 10.6035 136.069 9.68066H136.11V11H138.038V3.67188ZM143.616 3.55566C142.557 3.55566 141.743 4.08887 141.347 4.9502H141.306V3.67188H139.337V13.3926H141.333V9.76953H141.374C141.764 10.5967 142.584 11.1162 143.65 11.1162C145.482 11.1162 146.617 9.69434 146.617 7.33594C146.617 4.9707 145.476 3.55566 143.616 3.55566ZM142.946 9.50977C141.969 9.50977 141.326 8.66211 141.326 7.33594C141.326 6.02344 141.969 5.15527 142.946 5.15527C143.944 5.15527 144.573 6.00977 144.573 7.33594C144.573 8.66895 143.944 9.50977 142.946 9.50977Z" fill="#FC0404"/>
</svg>
