<svg width="35" height="35" viewBox="0 0 35 35" fill="none" xmlns="http://www.w3.org/2000/svg">
<path d="M16.5136 0.584087C13.6821 2.61776 9.86003 2.62934 6.94455 0.61306C6.69273 0.433445 6.4633 0.288597 6.44092 0.288597C6.41853 0.288597 6.31781 0.387096 6.22268 0.502975C6.12195 0.624645 5.69666 1.08816 5.27696 1.53429C4.85727 1.98042 4.14658 2.73943 3.70451 3.21453C2.04251 5.00485 1.371 5.7233 0.884157 6.23896L0.380523 6.76621L0.772238 7.22393C1.29266 7.83808 1.56126 8.22048 1.90262 8.84043C2.90429 10.6481 3.20647 12.9194 2.71962 14.9878C2.479 16.0075 2.17122 16.7318 1.49971 17.8152C0.470058 19.4839 0 21.0946 0 22.9718C0 23.922 0.0559593 24.4145 0.263009 25.2778C0.93452 28.0473 2.85952 30.3822 5.40567 31.4947C6.58641 32.0161 7.4314 32.1842 9.2109 32.2653C10.5819 32.329 11.4325 32.4565 12.5181 32.7693C13.8667 33.1517 15.2769 33.8122 16.452 34.6176L17.0172 35L17.5824 34.6176C18.7576 33.8122 20.1677 33.1517 21.5164 32.7693C22.602 32.4565 23.4525 32.329 24.8235 32.2653C26.6031 32.1842 27.448 32.0161 28.6288 31.4947C31.1749 30.3822 33.0999 28.0473 33.7714 25.2778C33.9785 24.4145 34.0345 23.922 34.0345 22.9718C34.0345 21.0946 33.5644 19.4839 32.5347 17.8152C31.8632 16.7318 31.5555 16.0075 31.3148 14.9878C30.828 12.9194 31.1302 10.6481 32.1318 8.84043C32.4732 8.22048 32.7418 7.83808 33.2622 7.22393L33.6539 6.76621L33.1503 6.23896C32.6634 5.7233 31.9919 5.00485 30.3299 3.21453C29.8879 2.73943 29.1772 1.98042 28.7575 1.53429C28.3378 1.08816 27.9125 0.624645 27.8118 0.502975C27.7166 0.387096 27.6159 0.288597 27.5935 0.288597C27.5712 0.288597 27.3417 0.433445 27.0899 0.61306C25.4783 1.72549 23.4973 2.26433 21.6618 2.09051C20.0782 1.93987 18.8135 1.48215 17.5432 0.601471C17.2467 0.398682 17.0004 0.230659 17.0004 0.236454C16.9948 0.236454 16.7766 0.392891 16.5136 0.584087ZM17.4425 1.92249C19.0262 2.91325 21.175 3.42311 23.0776 3.25509C24.443 3.12762 25.4615 2.83213 26.6926 2.1948L27.448 1.80661L28.321 2.73943C28.8023 3.25509 29.8487 4.37911 30.6545 5.23661L32.1095 6.80097L31.7569 7.29345C30.9063 8.48121 30.3467 9.84857 30.0781 11.384C30.0054 11.8127 29.9774 12.2473 29.9774 13.0352C29.9774 13.9681 29.9998 14.1998 30.1285 14.8429C30.3971 16.1524 30.8392 17.2474 31.5722 18.4178C32.1934 19.4143 32.5627 20.3182 32.781 21.3785C32.9209 22.0738 32.9265 23.9278 32.781 24.6057C32.1878 27.4563 30.2348 29.7565 27.6383 30.6546C26.8045 30.9443 26.1218 31.0543 24.7676 31.1123C23.0664 31.1876 22.0368 31.3614 20.6826 31.8133C19.5074 32.2015 18.6121 32.6187 17.5712 33.256L17.0172 33.5979L16.4632 33.256C15.4224 32.6187 14.527 32.2015 13.3519 31.8133C11.9977 31.3614 10.968 31.1876 9.26686 31.1123C8.47784 31.0775 7.82871 31.0196 7.47057 30.9443C4.32565 30.3127 1.93619 27.8793 1.25349 24.6057C1.10799 23.9278 1.11359 22.0738 1.25349 21.3785C1.47173 20.3182 1.84106 19.4143 2.46221 18.4178C2.93786 17.6646 3.27922 16.9635 3.53103 16.2335C4.57188 13.2033 4.10182 9.84857 2.27754 7.29345L1.925 6.80097L3.37994 5.23661C4.18576 4.37911 5.2322 3.25509 5.71345 2.73943L6.58641 1.80661L7.34186 2.1948C8.57297 2.83213 9.59143 3.12762 10.9568 3.25509C12.2383 3.37097 13.6709 3.17397 14.9188 2.72205C15.4839 2.51347 16.4408 2.04416 16.7374 1.82978C16.8438 1.74867 16.9613 1.68493 16.9948 1.67914C17.034 1.67914 17.2355 1.78923 17.4425 1.92249Z" fill="white"/>
<path d="M6.55347 4.97635C6.20652 5.09223 5.91553 5.23707 5.72527 5.39351C5.56299 5.52098 5.47905 5.46883 6.9172 6.07719C8.5736 6.78405 8.65194 6.89993 8.19867 8.0761C7.89089 8.85827 7.70623 9.119 7.39286 9.2175C7.13544 9.29861 7.12425 9.29282 5.64133 8.65549C5.02018 8.38897 4.50536 8.18618 4.48857 8.20356C4.43261 8.2615 4.60049 8.89883 4.74598 9.20591C4.94744 9.61148 5.43988 10.1387 5.80361 10.3299C6.26808 10.5733 6.643 10.6544 7.70623 10.7471C8.26582 10.7934 8.78065 10.8572 8.85899 10.8861C8.93733 10.9151 9.32345 11.228 9.72636 11.5756L10.4538 12.2188L10.6161 11.9928C10.7056 11.8711 10.9127 11.6278 11.075 11.4424C11.2373 11.2628 11.366 11.0947 11.366 11.0716C11.366 11.0484 11.0638 10.7703 10.7001 10.4516C10.3307 10.1387 10.0285 9.84904 10.0285 9.82007C10.0285 9.7853 10.0901 9.68681 10.1628 9.5999L10.3027 9.43767L11.0302 10.0808L11.7633 10.7181L11.9256 10.5907C12.1326 10.4342 12.1606 10.4748 11.2205 9.66942C10.4091 8.96836 10.4258 8.99733 10.1628 7.99498C9.6648 6.14672 9.41299 5.70059 8.568 5.19652C7.99722 4.86047 7.16902 4.76777 6.55347 4.97635ZM7.40964 5.72956C8.46727 6.01346 8.85899 6.23363 9.07723 6.67397C9.29547 7.1143 9.19475 7.51988 8.51204 9.00892C8.24903 9.57672 8.08116 9.70419 7.6055 9.6926C7.43203 9.6926 7.24177 9.65784 7.18581 9.62307C7.10746 9.57672 7.14664 9.56513 7.39845 9.55934C7.91887 9.55934 8.00841 9.45505 8.46168 8.37159C8.86459 7.39241 8.92055 7.09692 8.76945 6.78984C8.61277 6.47697 8.35536 6.30895 7.52716 5.95552C6.40238 5.48621 6.39119 5.45724 7.40964 5.72956Z" fill="white"/>
<path d="M26.0212 5.00473C25.5344 5.18434 25.0252 5.54936 24.7733 5.90278C24.5159 6.26201 24.3424 6.69655 24.1242 7.54246C24.0291 7.90169 23.8892 8.38258 23.8108 8.60855C23.6709 9.01992 23.6709 9.01992 22.8651 9.72677C22.4174 10.1208 22.0537 10.4452 22.0537 10.4568C22.0537 10.4684 22.1265 10.5321 22.2216 10.6017L22.3895 10.7233L23.1225 10.0802L23.8556 9.43708L24.0179 9.62828C24.1634 9.80789 24.169 9.82527 24.0682 9.90639C23.2624 10.6017 22.7812 11.0304 22.7812 11.071C22.7812 11.0941 22.9994 11.3491 23.2736 11.6388L23.7605 12.166L24.46 11.5519C24.8461 11.2158 25.221 10.9145 25.2938 10.8856C25.3665 10.8566 25.8813 10.7929 26.4409 10.7465C27.7448 10.6364 28.1924 10.5032 28.7353 10.0628C29.2053 9.67463 29.7033 8.73022 29.653 8.31885L29.6362 8.174L28.4946 8.66649C27.0565 9.28064 26.9893 9.30382 26.7431 9.21691C26.4521 9.11841 26.2842 8.89245 26.0268 8.25512C25.719 7.49611 25.6855 7.36865 25.7246 7.1311C25.7974 6.73711 25.9821 6.61544 27.3083 6.05343C27.9854 5.76373 28.545 5.51459 28.545 5.49142C28.545 5.46824 28.4107 5.36974 28.254 5.27125C27.5433 4.84829 26.7151 4.74979 26.0212 5.00473ZM27.4818 5.58412C27.4818 5.59571 27.09 5.76952 26.6144 5.96652C25.6631 6.3605 25.4001 6.56909 25.3217 6.98045C25.2714 7.28174 25.3105 7.43817 25.7246 8.44052C26.1611 9.48343 26.2283 9.55875 26.7767 9.55875C27.1684 9.55875 27.1628 9.59351 26.7543 9.67463C26.385 9.74995 26.0996 9.67463 25.9037 9.46025C25.6799 9.21691 24.9636 7.49032 24.9636 7.18904C24.9636 6.7429 25.1986 6.34312 25.5791 6.14034C26.0044 5.92017 27.4818 5.48562 27.4818 5.58412Z" fill="white"/>
<path d="M15.7582 10.1208C14.6838 10.1729 13.3687 10.341 12.8875 10.48C12.7868 10.5148 12.5741 10.648 12.4118 10.7871C12.0369 11.1 10.9177 12.2298 10.9177 12.2935C10.9177 12.3167 11.1248 12.195 11.3822 12.027C12.16 11.4997 13.0498 11.0131 13.3464 10.9493C14.4711 10.7118 18.6569 10.7118 20.2629 10.9551C20.6938 11.0189 21.2254 11.2622 21.4157 11.4766C21.5052 11.5809 21.4996 11.5809 21.1918 11.4708C20.7106 11.3028 20.123 11.2448 18.489 11.1985L17.0229 11.1637L16.6871 11.8937C16.5025 12.2993 16.3402 12.6759 16.3234 12.7339C16.2898 12.8381 16.3626 12.8439 17.9238 12.8845C19.5187 12.9193 21.4325 13.0062 22.3782 13.0815C22.8315 13.122 22.8482 13.1278 22.9602 13.319L23.0777 13.5102L22.8035 13.4755C21.3653 13.2959 14.6278 13.2263 12.8763 13.3712C11.8019 13.4581 10.3749 13.6087 10.1902 13.6435C10.0615 13.6725 10.0392 13.6435 9.94962 13.3828C9.89366 13.2263 9.79294 13.0236 9.71459 12.9366C9.59148 12.7802 9.55791 12.7744 9.11583 12.7802C8.18131 12.7918 7.44824 13.1684 7.44824 13.6377C7.44824 13.7941 8.38836 13.9969 9.25013 14.0375L9.5691 14.0491L9.19417 14.3388C8.71852 14.7096 8.42193 15.1152 8.34359 15.4976C8.24846 16.0016 8.17571 17.1256 8.13654 18.7595L8.10297 20.3413L8.22048 20.376C8.32121 20.3992 8.34359 20.4514 8.34359 20.6541C8.34359 21.1003 8.30442 21.0887 10.1847 21.0887C11.4046 21.0887 11.8634 21.0713 11.9138 21.0192C11.953 20.9786 11.9809 20.8222 11.9809 20.6715V20.3934H17.0732H22.1655V20.6484C22.1655 21.1003 22.1208 21.0887 24.0122 21.0887C25.9036 21.0887 25.8029 21.1119 25.8029 20.631C25.8029 20.434 25.8197 20.3934 25.9148 20.3934C25.9764 20.3934 26.0267 20.3587 26.0323 20.3181C26.0547 20.0516 26.0099 18.1048 25.9652 17.2647C25.8924 15.8742 25.8253 15.3759 25.663 15.0862C25.5119 14.8255 25.1538 14.4604 24.79 14.2171L24.5494 14.0491L25.137 14.0085C25.6518 13.9738 26.5416 13.8231 26.6535 13.7536C26.7374 13.6956 26.6982 13.4523 26.5807 13.3017C26.3457 12.9888 25.7246 12.786 25.0139 12.7802C24.5158 12.7744 24.4431 12.8208 24.264 13.2321L24.1465 13.5102L23.7884 13.0004C23.3743 12.4094 22.3894 11.3375 21.8242 10.8566C21.6115 10.677 21.3317 10.4974 21.1918 10.4568C20.3133 10.1845 17.7224 10.0223 15.7582 10.1208ZM11.8746 15.0109C12.0761 15.1152 12.5182 16.0364 12.4174 16.1349C12.4006 16.1523 12.1656 16.1291 11.8914 16.0769C11.1863 15.9495 9.79294 15.8568 9.25573 15.8973C9.00391 15.9205 8.78567 15.9147 8.77448 15.8915C8.75769 15.8626 8.78007 15.7583 8.82484 15.6598C8.98712 15.3237 9.68102 15.0456 10.5988 14.9529C11.0912 14.9008 11.7291 14.9297 11.8746 15.0109ZM24.0961 15.0398C24.8292 15.1847 25.3552 15.4976 25.3552 15.7815C25.3552 15.8973 25.3272 15.9031 24.3032 15.9147C23.3855 15.9205 22.5629 16.0016 21.9025 16.1407C21.757 16.1696 21.7179 16.1581 21.7179 16.0885C21.7179 15.9089 21.9417 15.3817 22.104 15.1789C22.2383 15.0109 22.311 14.9761 22.5629 14.9413C22.9546 14.895 23.5365 14.9355 24.0961 15.0398ZM20.4868 16.5636C21.5668 16.6621 22.6356 16.7954 23.3407 16.9229C24.0793 17.0561 25.2041 17.3226 25.1706 17.3574C25.1594 17.369 24.7509 17.3284 24.2584 17.2647C22.8315 17.0793 21.4437 16.9808 19.1885 16.9055C16.1107 16.8012 12.4006 16.9402 10.1063 17.2357C9.73698 17.2879 9.32288 17.34 9.18298 17.3516L8.93116 17.3806L9.18298 17.2937C10.1343 16.9634 12.188 16.6563 14.3592 16.5115C15.3665 16.4478 19.5746 16.4825 20.4868 16.5636ZM19.1773 17.5544C19.5746 17.5892 20.0503 17.6529 20.2349 17.705C20.6211 17.8035 21.1471 18.099 21.4661 18.3945L21.6899 18.6031L21.287 18.3945C20.3637 17.931 19.5802 17.8209 17.0732 17.8209C14.5607 17.8209 13.766 17.931 12.8707 18.4003C12.3894 18.6494 12.4174 18.5741 12.9434 18.1917C13.7493 17.6065 14.2081 17.5254 16.9389 17.508C17.7727 17.5023 18.78 17.5254 19.1773 17.5544Z" fill="white"/>
<path d="M15.4002 11.9864C15.182 12.4268 15.0029 12.8092 15.0029 12.8266C15.0029 12.8439 15.2268 12.8613 15.501 12.8613H15.9934L16.1669 12.4673C16.262 12.253 16.4243 11.8764 16.5362 11.6272L16.7321 11.1811H16.2676H15.8031L15.4002 11.9864Z" fill="white"/>
<path d="M13.7102 11.2911C13.5983 11.3142 13.3744 11.4185 13.2178 11.5228C12.9156 11.7256 12.1321 12.5541 11.9699 12.8496L11.8691 13.0234L12.4735 12.9945C13.4136 12.9481 13.3297 13.0118 13.8109 12.0616L14.2306 11.2389L14.0683 11.2447C13.9844 11.2505 13.8221 11.2679 13.7102 11.2911Z" fill="white"/>
<path d="M12.3615 21.0886C12.2104 21.4594 12.0034 21.5521 11.3039 21.5521H10.7163L10.2127 21.9866L9.71462 22.427L9.56353 22.2358L9.41244 22.0446L9.67545 21.8012L9.93846 21.5579L9.6083 21.5521C9.34529 21.5521 9.25575 21.5811 9.12145 21.6911C8.94798 21.8418 8.5003 21.9229 7.44827 21.9924C6.75997 22.033 6.15001 22.1836 5.75829 22.4038C5.46171 22.5718 4.9301 23.1222 4.7846 23.4177C4.6447 23.7016 4.48242 24.2173 4.48242 24.3911V24.5533L5.7471 24.0087C6.44659 23.7074 7.09013 23.4641 7.17966 23.4641C7.42029 23.4641 7.70008 23.6031 7.82319 23.7885C7.88475 23.8812 8.05263 24.2694 8.19812 24.646C8.5003 25.4166 8.5059 25.5962 8.26527 25.9207C8.15335 26.0771 7.91273 26.1988 6.86069 26.6507L5.59042 27.1954L5.72472 27.3112C5.95975 27.514 6.54732 27.7632 6.93904 27.8269C8.00786 27.9949 9.15503 27.3808 9.62508 26.3842C9.72022 26.1814 9.92726 25.5557 10.0784 24.9995C10.235 24.4491 10.3861 23.9334 10.4197 23.8581C10.4533 23.7827 11.1696 23.128 12.0145 22.3922C12.8595 21.6622 13.5926 21.0191 13.643 20.9611C13.7269 20.8626 13.7045 20.8568 13.0946 20.8568H12.4566L12.3615 21.0886ZM8.03584 23.0817C8.27646 23.186 8.366 23.3366 8.81927 24.4027C9.22777 25.3645 9.26694 25.6252 9.06549 26.054C8.86404 26.4885 8.44994 26.7087 7.23003 27.0273C6.91106 27.1085 6.64245 27.1664 6.63126 27.1548C6.62007 27.1432 6.97821 26.981 7.43148 26.7956C8.59543 26.3089 8.78569 26.1467 8.83606 25.6194C8.85844 25.3645 8.81927 25.2312 8.45553 24.3506C8.00786 23.2555 7.96309 23.1976 7.43707 23.1338C7.19085 23.0991 7.16287 23.0875 7.28039 23.0527C7.51542 22.9832 7.83439 22.9948 8.03584 23.0817Z" fill="white"/>
<path d="M20.4316 20.8862C20.4316 20.8978 21.1535 21.5409 22.0433 22.3115C23.8731 23.9048 23.7444 23.7252 24.097 25.0926C24.3712 26.1413 24.6454 26.7265 25.0483 27.1031C25.8821 27.8968 26.9565 28.0649 27.9861 27.5724C28.6912 27.2363 28.708 27.2595 27.4154 26.7091C26.0164 26.1181 25.9324 26.066 25.7925 25.7357C25.6526 25.417 25.6694 25.3475 26.0276 24.461C26.3521 23.6789 26.4808 23.5282 26.8837 23.4819C27.0852 23.4587 27.309 23.5398 28.4002 24.0033L29.6817 24.5595L29.6481 24.2641C29.5642 23.5572 28.9542 22.6939 28.2995 22.3636C27.8351 22.1319 27.3818 22.0334 26.3913 21.9639C25.468 21.8943 25.1658 21.8306 24.9867 21.6626C24.9028 21.5815 24.7909 21.5525 24.5391 21.5525H24.2089L24.4719 21.8016L24.7405 22.045L24.5838 22.2362L24.4327 22.4216L23.9347 21.987L23.4423 21.5525H22.8435C22.1384 21.5525 21.9313 21.4598 21.7915 21.089L21.7019 20.8572H21.064C20.717 20.8572 20.4316 20.8688 20.4316 20.8862ZM26.867 23.0589C27.0069 23.1053 27.0013 23.1053 26.839 23.1111C26.5592 23.1227 26.2794 23.2269 26.1563 23.3602C25.9828 23.563 25.3001 25.278 25.3001 25.5213C25.3001 25.811 25.4904 26.1645 25.7366 26.3267C25.8485 26.4078 26.3018 26.6164 26.7438 26.8018C27.1803 26.9814 27.5273 27.1436 27.5161 27.1552C27.4881 27.1842 26.6487 26.964 26.1339 26.7902C25.5407 26.5932 25.2329 26.373 25.0819 26.0602C24.886 25.643 24.9252 25.3939 25.3057 24.4784C25.7366 23.4355 25.8821 23.1864 26.1003 23.0879C26.2962 22.9952 26.6487 22.9836 26.867 23.0589Z" fill="white"/>
</svg>
