<svg width="20" height="20" viewBox="0 0 20 20" fill="none" xmlns="http://www.w3.org/2000/svg">
<g opacity="0.6">
<path d="M18.0703 2.4769C17.8969 2.32996 17.6869 2.23276 17.4627 2.19562C17.2385 2.15848 17.0084 2.18279 16.7969 2.26596L2.37498 7.93002C2.12203 8.02639 1.90776 8.20325 1.76518 8.43335C1.6226 8.66345 1.55962 8.93404 1.58592 9.20346C1.60939 9.47276 1.71953 9.72721 1.89982 9.92863C2.08012 10.1301 2.32085 10.2676 2.58592 10.3206L6.24998 11.0472V15.6253C6.24985 15.873 6.3233 16.1151 6.461 16.321C6.5987 16.5268 6.79446 16.6872 7.02342 16.7816C7.17495 16.8426 7.33664 16.8744 7.49998 16.8753C7.66416 16.8759 7.8268 16.8437 7.97838 16.7807C8.12997 16.7176 8.26746 16.625 8.38279 16.5081L10.414 14.4847L13.4844 17.1878C13.711 17.3877 14.0024 17.4988 14.3047 17.5003C14.4376 17.5031 14.5699 17.4819 14.6953 17.4378C14.9015 17.3726 15.087 17.2547 15.2336 17.0957C15.3802 16.9368 15.4828 16.7423 15.5312 16.5316L18.4687 3.70346C18.5201 3.4821 18.5101 3.25094 18.4399 3.03483C18.3697 2.81871 18.2419 2.62582 18.0703 2.4769ZM6.72654 9.86752L2.83592 9.09408L13.7422 4.80502L6.72654 9.86752ZM7.49998 15.6253V11.9222L9.46873 13.6566L7.49998 15.6253ZM14.3125 16.2503L7.87498 10.5863L17.1484 3.89096L14.3125 16.2503Z" fill="white"/>
</g>
</svg>
